<svg xmlns="http://www.w3.org/2000/svg" viewBox="0 0 24 24" fill="currentColor">
  <path d="M21.579 6.855c.14.625.21 1.266.21 1.905 0 4.833-3.8 10.366-10.714 10.366-2.121 0-4.1-.615-5.76-1.674.297.034.589.051.889.051 1.713 0 3.298-.577 4.552-1.55-1.609-.031-2.969-1.09-3.436-2.553.224.042.455.065.691.065.335 0 .661-.045.968-.13C7.358 13.106 6 11.528 6 9.661v-.03c.504.278 1.077.444 1.687.465-1.009-.673-1.671-1.822-1.671-3.122 0-.688.186-1.331.51-1.885C8.147 7.004 10.698 8.198 13.5 8.34c-.062-.27-.096-.553-.096-.84 0-2.041 1.657-3.696 3.698-3.696 1.06 0 2.02.447 2.696 1.166.839-.165 1.637-.471 2.348-.894-.276.858-.86 1.577-1.621 2.032.749-.09 1.461-.29 2.124-.583-.494.738-1.118 1.388-1.84 1.909l.76.021z" />
</svg>
